<?xml version="1.0" encoding="UTF-8"?>
<svg id="_图层_1" data-name="图层_1" xmlns="http://www.w3.org/2000/svg" version="1.1" viewBox="0 0 32 32">
  <!-- Generator: Adobe Illustrator 29.6.1, SVG Export Plug-In . SVG Version: 2.1.1 Build 9)  -->
  <defs>
    <style>
      .st0 {
        fill: #5e8bff;
      }
    </style>
  </defs>
  <path class="st0" d="M16,3c7.17,0,13,5.83,13,13s-5.83,13-13,13S3,23.17,3,16,8.83,3,16,3M16,1C7.72,1,1,7.72,1,16s6.72,15,15,15,15-6.72,15-15S24.28,1,16,1h0Z"/>
  <path class="st0" d="M14.5,19.41c-.07-.18-.14-.42-.2-.7-.06-.29-.09-.57-.09-.86,0-.44.1-.84.3-1.2.2-.36.45-.69.75-1,.3-.31.62-.61.97-.9s.67-.57.97-.85.55-.56.75-.87c.2-.3.3-.64.3-1,0-.32-.07-.61-.22-.85-.15-.24-.35-.44-.61-.61-.26-.16-.55-.28-.88-.36s-.68-.12-1.06-.12c-1.22,0-2.38.48-3.48,1.44v-2.5c1.34-.69,2.73-1.04,4.16-1.04.66,0,1.29.08,1.87.23.59.15,1.1.38,1.54.67.44.3.79.66,1.04,1.11s.38.95.38,1.54-.11,1.05-.32,1.48c-.21.43-.48.83-.8,1.2-.32.37-.67.69-1.04.97s-.72.56-1.04.85c-.32.28-.59.57-.8.88s-.32.64-.32,1.01c0,.31.04.59.13.85.09.25.18.47.27.64h-2.58ZM15.89,24c-.47,0-.88-.14-1.24-.42-.34-.27-.51-.61-.51-1.02s.17-.75.51-1.02c.35-.29.76-.43,1.24-.43s.87.14,1.22.43c.34.27.51.61.51,1.02s-.17.74-.51,1.02c-.36.28-.77.42-1.22.42Z"/>
</svg>