<?xml version="1.0" encoding="UTF-8"?>
<svg id="_图层_1" data-name="图层_1" xmlns="http://www.w3.org/2000/svg" version="1.1" viewBox="0 0 16 16">
  <!-- Generator: Adobe Illustrator 29.6.1, SVG Export Plug-In . SVG Version: 2.1.1 Build 9)  -->
  <defs>
    <style>
      .st0 {
        fill: #5e8bff;
        isolation: isolate;
      }

      .st1 {
        fill: gray;
      }
    </style>
  </defs>
  <path class="st1" d="M4.99,13c-.13,0-.26-.02-.38-.07-.34-.13-.57-.43-.6-.8-.06-.56.32-1.14,1.02-1.59h0c.51-.32,1.14-.57,1.82-.75.16-.39.31-.79.44-1.19-.52-.76-.91-1.55-1.03-2.26-.12-.73.06-1.34.49-1.67.31-.24.71-.29,1.07-.13.46.21.74.71.79,1.36.04.63-.12,1.57-.41,2.55.26.35.56.69.86,1,.97-.05,1.9.02,2.61.21.72.19,1.21.6,1.32,1.1.08.36-.04.72-.32.96-.41.36-1.09.4-1.8.12-.59-.23-1.37-.81-2.13-1.56-.44.04-.87.1-1.3.2-.4.86-.86,1.6-1.32,2.02-.36.32-.75.49-1.12.49ZM6.36,10.79c-.33.12-.63.27-.89.43h0c-.51.32-.66.64-.65.82,0,.08.05.11.08.12.11.04.36,0,.65-.27.27-.24.54-.63.8-1.1ZM9.89,10.25c.48.41.93.7,1.25.83.5.2.84.13.97.02.07-.06.07-.12.06-.16-.03-.15-.25-.37-.74-.5-.43-.12-.97-.18-1.55-.19ZM7.88,9.38c-.03.07-.05.14-.08.21.07-.01.15-.02.23-.03-.05-.06-.1-.12-.15-.17ZM7.38,5.26c-.06,0-.1.02-.14.05-.14.11-.26.4-.18.89.07.43.26.88.52,1.35.15-.63.22-1.19.2-1.59-.03-.4-.18-.61-.31-.67-.03-.01-.06-.02-.09-.02Z"/>
  <rect class="st0" x="1" y="2" width="5" height="1"/>
  <polygon class="st0" points="4.47 5 4 4.33 5.86 2.5 4 .67 4.47 0 7 2.5 4.47 5"/>
  <polygon class="st1" points="12 0 7 0 8 1 11 1 11 5 14 5 14 14 3 14 3 6 2 5 2 15 15 15 15 4 12 0"/>
</svg>