<?xml version="1.0" encoding="UTF-8"?>
<svg id="_图层_1" data-name="图层_1" xmlns="http://www.w3.org/2000/svg" version="1.1" viewBox="0 0 32 32">
  <!-- Generator: Adobe Illustrator 29.6.1, SVG Export Plug-In . SVG Version: 2.1.1 Build 9)  -->
  <defs>
    <style>
      .st0 {
        fill: #5e8bff;
      }
    </style>
  </defs>
  <path class="st0" d="M28,16c0-.66-.06-1.3-.16-1.93-.07-.43.08-.87.44-1.14l2.27-1.71c.47-.35.6-1,.3-1.51l-1.98-3.42c-.29-.51-.92-.72-1.46-.49l-2.62,1.11c-.41.17-.86.09-1.2-.19-.99-.82-2.12-1.48-3.34-1.94-.41-.16-.71-.51-.77-.95l-.35-2.81C19.05.44,18.56,0,17.97,0h-3.95C13.44,0,12.95.44,12.87,1.02l-.35,2.81c-.05.44-.36.79-.77.95-1.22.46-2.34,1.13-3.34,1.94-.34.28-.8.36-1.2.19l-2.62-1.11c-.54-.23-1.16-.02-1.46.49l-1.98,3.42c-.29.51-.16,1.15.3,1.51l2.27,1.71c.35.27.51.7.44,1.14-.1.63-.16,1.27-.16,1.93s.06,1.3.16,1.93c.07.43-.08.87-.44,1.14l-2.27,1.71c-.47.35-.6,1-.3,1.51l1.98,3.42c.29.51.92.72,1.46.49l2.62-1.11c.41-.17.86-.09,1.2.19.99.82,2.12,1.48,3.34,1.94.41.16.71.51.77.95l.35,2.81c.07.58.57,1.02,1.15,1.02h3.95c.59,0,1.08-.44,1.15-1.02l.35-2.81c.05-.44.36-.79.77-.95,1.22-.46,2.34-1.13,3.34-1.94.34-.28.8-.36,1.2-.19l2.62,1.11c.54.23,1.16.02,1.46-.49l1.98-3.42c.29-.51.16-1.15-.3-1.51l-2.27-1.71c-.35-.27-.51-.7-.44-1.14.1-.63.16-1.27.16-1.93ZM22,16c0,3.31-2.69,6-6,6s-6-2.69-6-6,2.69-6,6-6,6,2.69,6,6Z"/>
</svg>