<?xml version="1.0" encoding="UTF-8"?>
<svg id="_图层_1" data-name="图层_1" xmlns="http://www.w3.org/2000/svg" version="1.1" viewBox="0 0 16 16">
  <!-- Generator: Adobe Illustrator 29.6.1, SVG Export Plug-In . SVG Version: 2.1.1 Build 9)  -->
  <defs>
    <style>
      .st0 {
        fill: #5e8bff;
      }
    </style>
  </defs>
  <path class="st0" d="M13,2v12H3V2h10M13,1H3c-.55,0-1,.45-1,1v12c0,.55.45,1,1,1h10c.55,0,1-.45,1-1V2c0-.55-.45-1-1-1h0Z"/>
  <path class="st0" d="M6,10v1h-1v-1h1M7,9h-3v3h3v-3h0Z"/>
  <polygon class="st0" points="12 9 8 9 8 10 12 10 12 9 12 9"/>
  <polygon class="st0" points="11 11 8 11 8 12 11 12 11 11 11 11"/>
  <polygon class="st0" points="12 4 9 4 9 5 12 5 12 4 12 4"/>
  <polygon class="st0" points="12 6 8 6 8 7 12 7 12 6 12 6"/>
  <polygon class="st0" points="5.61 7.32 3.65 5.35 4.35 4.65 5.58 5.88 7.63 3.66 8.37 4.34 5.61 7.32"/>
</svg>