<?xml version="1.0" encoding="UTF-8"?>
<svg id="_图层_1" data-name="图层_1" xmlns="http://www.w3.org/2000/svg" version="1.1" xmlns:xlink="http://www.w3.org/1999/xlink" viewBox="0 0 32 32">
  <!-- Generator: Adobe Illustrator 29.6.1, SVG Export Plug-In . SVG Version: 2.1.1 Build 9)  -->
  <defs>
    <style>
      .st0 {
        fill: url(#_未命名的渐变_5);
      }

      .st1 {
        fill: url(#_未命名的渐变_51);
      }

      .st2 {
        fill: url(#_未命名的渐变_52);
      }
    </style>
    <linearGradient id="_未命名的渐变_5" data-name="未命名的渐变 5" x1="11.05" y1="12.95" x2="20.95" y2="3.05" gradientUnits="userSpaceOnUse">
      <stop offset="0" stop-color="#3b49e6"/>
      <stop offset="1" stop-color="#45cafe"/>
    </linearGradient>
    <linearGradient id="_未命名的渐变_51" data-name="未命名的渐变 5" x1="7.05" y1="35.29" x2="24.95" y2="17.39" xlink:href="#_未命名的渐变_5"/>
    <linearGradient id="_未命名的渐变_52" data-name="未命名的渐变 5" x1="13" y1="25" x2="19" y2="19" xlink:href="#_未命名的渐变_5"/>
  </defs>
  <path class="st0" d="M16,1c-3.87,0-7,3.13-7,7s3.13,7,7,7,7-3.13,7-7-3.13-7-7-7ZM16,14c-3.31,0-6-2.69-6-6s2.69-6,6-6,6,2.69,6,6-2.69,6-6,6Z"/>
  <path class="st1" d="M20,17h-8c-6.08,0-11,4.92-11,11,0,1.66,1.34,3,3,3h24c1.66,0,3-1.34,3-3,0-6.08-4.92-11-11-11ZM28,30H4c-1.1,0-2-.9-2-2,0-5.51,4.49-10,10-10h8c5.51,0,10,4.49,10,10,0,1.1-.9,2-2,2Z"/>
  <polygon class="st2" points="15 17 15 20 13 25 16 28 19 25 17 20 17 17 15 17"/>
</svg>