<?xml version="1.0" encoding="UTF-8"?>
<svg id="_图层_1" data-name="图层_1" xmlns="http://www.w3.org/2000/svg" version="1.1" xmlns:xlink="http://www.w3.org/1999/xlink" viewBox="0 0 32 32">
  <!-- Generator: Adobe Illustrator 29.6.1, SVG Export Plug-In . SVG Version: 2.1.1 Build 9)  -->
  <defs>
    <style>
      .st0 {
        fill: url(#_未命名的渐变_5);
      }

      .st1 {
        fill: #f4f4f4;
      }
    </style>
    <linearGradient id="_未命名的渐变_5" data-name="未命名的渐变 5" x1="4.46" y1="32.71" x2="27.54" y2="9.64" gradientUnits="userSpaceOnUse">
      <stop offset="0" stop-color="#3b49e6"/>
      <stop offset="1" stop-color="#45cafe"/>
    </linearGradient>
  </defs>
  <path class="st0" d="M23,8c0,3.87-3.13,7-7,7s-7-3.13-7-7,3.13-7,7-7,7,3.13,7,7ZM20,17h-8c-6.08,0-11,4.92-11,11h0c0,1.66,1.34,3,3,3h24c1.66,0,3-1.34,3-3h0c0-6.08-4.92-11-11-11Z"/>
  <polygon class="st1" points="15 17 15 20 13 25 16 28 19 25 17 20 17 17 15 17"/>
</svg>