<?xml version="1.0" encoding="UTF-8"?>
<svg id="_图层_1" data-name="图层_1" xmlns="http://www.w3.org/2000/svg" version="1.1" xmlns:xlink="http://www.w3.org/1999/xlink" viewBox="0 0 32 32">
  <!-- Generator: Adobe Illustrator 29.6.1, SVG Export Plug-In . SVG Version: 2.1.1 Build 9)  -->
  <defs>
    <style>
      .st0 {
        fill: url(#_未命名的渐变_5);
      }

      .st1 {
        fill: url(#_未命名的渐变_51);
      }

      .st2 {
        fill: url(#_未命名的渐变_52);
      }
    </style>
    <linearGradient id="_未命名的渐变_5" data-name="未命名的渐变 5" x1="8.75" y1="15.75" x2="23.25" y2="1.25" gradientUnits="userSpaceOnUse">
      <stop offset="0" stop-color="#3b49e6"/>
      <stop offset="1" stop-color="#45cafe"/>
    </linearGradient>
    <linearGradient id="_未命名的渐变_51" data-name="未命名的渐变 5" x1="4.54" y1="31.37" x2="27.46" y2="8.46" xlink:href="#_未命名的渐变_5"/>
    <linearGradient id="_未命名的渐变_52" data-name="未命名的渐变 5" x1="11.75" y1="23.75" x2="20.25" y2="15.25" xlink:href="#_未命名的渐变_5"/>
  </defs>
  <g>
    <path class="st0" d="M23.54,3l4.29,5H4.17l4.29-5h15.08M24,2H8l-6,7h28l-6-7h0Z"/>
    <path class="st1" d="M29,12v16c0,.55-.45,1-1,1H4c-.55,0-1-.45-1-1V12h26M30,11H2v17c0,1.1.9,2,2,2h24c1.1,0,2-.9,2-2V11h0Z"/>
  </g>
  <rect class="st2" x="10" y="17" width="12" height="5"/>
</svg>